/* XPM */
static char *_518089294825[] = {
/* columns rows colors chars-per-pixel */
"16 16 110 2 ",
"   c gray2",
".  c #0B0B0B",
"X  c gray6",
"o  c #202020",
"O  c gray15",
"+  c #272727",
"@  c #2A2A2A",
"#  c #2F2F2F",
"$  c gray19",
"%  c #313131",
"&  c gray20",
"*  c #343434",
"=  c gray22",
"-  c #393939",
";  c gray23",
":  c #3F3F3F",
">  c #464646",
",  c gray28",
"<  c #484848",
"1  c #4E4E4E",
"2  c #565656",
"3  c #5A5A5A",
"4  c #686868",
"5  c DimGray",
"6  c gray43",
"7  c gray50",
"8  c #808080",
"9  c gray51",
"0  c #838383",
"q  c #848484",
"w  c gray52",
"e  c #868686",
"r  c gray53",
"t  c #888888",
"y  c gray54",
"u  c #8B8B8B",
"i  c gray55",
"p  c #8D8D8D",
"a  c #8E8E8E",
"s  c #909090",
"d  c gray57",
"f  c #939393",
"g  c gray58",
"h  c #959595",
"j  c #979797",
"k  c #9B9B9B",
"l  c gray64",
"z  c #A5A5A5",
"x  c #A7A7A7",
"c  c gray66",
"v  c #A9A9A9",
"b  c #AAAAAA",
"n  c gray68",
"m  c #AEAEAE",
"M  c #AFAFAF",
"N  c gray69",
"B  c #B1B1B1",
"V  c gray70",
"C  c gray71",
"Z  c #B6B6B6",
"A  c #B7B7B7",
"S  c gray72",
"D  c gray73",
"F  c #BBBBBB",
"G  c gray74",
"H  c gray",
"J  c #C0C0C0",
"K  c gray76",
"L  c #C3C3C3",
"P  c gray78",
"I  c gray79",
"U  c #CACACA",
"Y  c gray80",
"T  c #CDCDCD",
"R  c #D0D0D0",
"E  c gray82",
"W  c #D2D2D2",
"Q  c #D5D5D5",
"!  c gray84",
"~  c #D7D7D7",
"^  c gray85",
"/  c #DADADA",
"(  c gray86",
")  c #DDDDDD",
"_  c gray87",
"`  c #DFDFDF",
"'  c gray88",
"]  c #E2E2E2",
"[  c #E4E4E4",
"{  c gray90",
"}  c gray91",
"|  c #E9E9E9",
" . c #EAEAEA",
".. c gray92",
"X. c #ECECEC",
"o. c #EEEEEE",
"O. c #EFEFEF",
"+. c gray94",
"@. c #F1F1F1",
"#. c gray95",
"$. c #F3F3F3",
"%. c #F4F4F4",
"&. c gray97",
"*. c #F9F9F9",
"=. c gray98",
"-. c #FBFBFB",
";. c gray99",
":. c #FDFDFD",
">. c #FEFEFE",
",. c white",
/* pixels */
">.>.:.=.,.,.o.! !  .,.,.-.:.>.>.",
">.:.;.,.' l e t i w j ! ,.>.:.>.",
";.:.:.L r B ] X.| ` J 9 N ;.:.:.",
";.>.K u H I I { ,.>.M W a n >.-.",
",._ q } V @ % D o.* 1 %.$.0 T >.",
">.x x ,.c = , s @ 4 ,.-.,.P s :.",
"' s Q >.N ; > . y ,.*.-.>.O.r +.",
"E g [ -.r X   $ ,.:.=.:.:.:.d ) ",
"W h } O.& X o o > &.,.=.:.:.f ) ",
"` s ~ >.v ; < V 2 # ..,.:.@.r O.",
":.z b ,.c = : A ,.3 O ` ,.I a :.",
",./ q X.Z & - m :.,.5 + U p P ,.",
";.>.G i Y ^ R X.>.,.,.S 6 n ;.-.",
";.:.;.F 0 C | #.+.] C u N =.:.:.",
":.:.:.,.( k 8 q t 7 g R ,.>.:.>.",
">.:.>.-.,.,.-.O.o.*.,.,.-.:.>.>."
};
