/* XPM */
static char *_518089449559[] = {
/* columns rows colors chars-per-pixel */
"32 32 188 2 ",
"   c black",
".  c #010101",
"X  c #020202",
"o  c #040404",
"O  c gray3",
"+  c gray4",
"@  c gray5",
"#  c #111111",
"$  c #131313",
"%  c #191919",
"&  c gray10",
"*  c gray11",
"=  c #1E1E1E",
"-  c gray12",
";  c gray13",
":  c gray14",
">  c gray15",
",  c #282828",
"<  c gray16",
"1  c #2C2C2C",
"2  c #2D2D2D",
"3  c #373737",
"4  c gray23",
"5  c #3C3C3C",
"6  c gray24",
"7  c gray25",
"8  c #464646",
"9  c gray28",
"0  c #484848",
"q  c #494949",
"w  c gray29",
"e  c #4E4E4E",
"r  c #535353",
"t  c gray33",
"y  c #555555",
"u  c #565656",
"i  c gray34",
"p  c #585858",
"a  c #5A5A5A",
"s  c #5B5B5B",
"d  c gray36",
"f  c #5D5D5D",
"g  c gray37",
"h  c #5F5F5F",
"j  c #606060",
"k  c gray38",
"l  c #626262",
"z  c gray39",
"x  c #646464",
"c  c #656565",
"v  c gray40",
"b  c #676767",
"n  c #686868",
"m  c #6A6A6A",
"M  c gray42",
"N  c #6C6C6C",
"B  c gray43",
"V  c #6F6F6F",
"C  c gray44",
"Z  c #717171",
"A  c #727272",
"S  c gray45",
"D  c #747474",
"F  c gray46",
"G  c #767676",
"H  c #777777",
"J  c gray47",
"K  c #797979",
"L  c gray48",
"P  c #7B7B7B",
"I  c #7C7C7C",
"U  c gray49",
"Y  c #7E7E7E",
"T  c gray50",
"R  c #808080",
"E  c #818181",
"W  c gray51",
"Q  c #838383",
"!  c #848484",
"~  c gray52",
"^  c #868686",
"/  c gray53",
"(  c #888888",
")  c #898989",
"_  c #8B8B8B",
"`  c gray55",
"'  c #8D8D8D",
"]  c #8E8E8E",
"[  c gray56",
"{  c #909090",
"}  c gray57",
"|  c #929292",
" . c #939393",
".. c gray58",
"X. c #959595",
"o. c gray59",
"O. c #979797",
"+. c #989898",
"@. c #999898",
"#. c gray60",
"$. c #9A9A9A",
"%. c #9B9B9B",
"&. c gray61",
"*. c #9D9D9D",
"=. c gray62",
"-. c #9F9F9F",
";. c #A0A0A0",
":. c gray63",
">. c #A2A2A2",
",. c gray64",
"<. c #A4A4A4",
"1. c #A5A5A5",
"2. c gray65",
"3. c #A7A7A7",
"4. c gray66",
"5. c #A9A9A9",
"6. c #AAAAAA",
"7. c gray67",
"8. c #ACACAC",
"9. c gray68",
"0. c #AFAFAF",
"q. c gray69",
"w. c #B1B1B1",
"e. c #B2B2B2",
"r. c gray70",
"t. c #B4B4B4",
"y. c gray71",
"u. c #B6B6B6",
"i. c #B7B7B7",
"p. c gray72",
"a. c #B9B9B9",
"s. c gray73",
"d. c #BBBBBB",
"f. c gray74",
"g. c #BEBFBF",
"h. c gray75",
"j. c #C1C1C1",
"k. c gray76",
"l. c #C3C3C3",
"z. c gray77",
"x. c gray78",
"c. c #C8C8C8",
"v. c gray79",
"b. c #CACACA",
"n. c #CDCDCD",
"m. c #CECECE",
"M. c #D0D0D0",
"N. c gray82",
"B. c #D7D7D7",
"V. c gray85",
"C. c #DADADA",
"Z. c gray86",
"A. c gainsboro",
"S. c #DDDDDD",
"D. c gray87",
"F. c #DFDFDF",
"G. c gray88",
"H. c #E1E1E1",
"J. c #E2E2E2",
"K. c gray89",
"L. c #E4E4E4",
"P. c gray90",
"I. c #E6E6E6",
"U. c #E7E7E7",
"Y. c gray91",
"T. c #E9E9E9",
"R. c #EAEAEA",
"E. c gray92",
"W. c #ECECEC",
"Q. c gray93",
"!. c #EEEEEE",
"~. c #EFEFEF",
"^. c #EFF0F0",
"/. c gray94",
"(. c #F1F1F1",
"). c gray95",
"_. c #F3F3F3",
"`. c gray96",
"'. c #F6F6F6",
"]. c gray97",
"[. c #F8F8F8",
"{. c #F9F9F9",
"}. c gray98",
"|. c #FBFBFB",
" X c gray99",
".X c #FDFDFD",
"XX c #FEFEFE",
"oX c white",
/* pixels */
"oXoXoXoXoX|.oXoXoX|.|.oXoXoXoXoXoXoXoXoXoX|.|.oX|.oXoXoXoX|.oXoX",
"oXoXoXoXoXoXoX|.|.oXoX(.n.f.9.9.q.9.p.v.R.oXoXoX|.oXoX|.oXoXoXoX",
"oXoXoX|.oXoX|.oXoXD.9.+. .E L L I G L ~  .:.n.oXoX|.oXoXoXoXoXoX",
"oXoXoXoX|.|.oX(.:.+. .Z m L [ *.2.+.~ Z c G  .+.D.oX|.oXoX|.oXoX",
"oXoXoXoX|.oXD.[ 2.G Z q.U.oXoXoXoXoXoXoXn.[ c E  .j.oXoX|.|.oXoX",
"oXoX|.|.oXv.[ 2.l 9.oXoXoX|.|.|.|.|.|.|.oXoXU.L G  .9.oX|.oX|.oX",
"|.oX|.oXM.O.4.d D.oX(.|.|.].oXoXoX|.|.oX|.].(.oXO.B *.q.oX|.oXoX",
"oX|.oXR.[ t.d (.oXl * O.G & 4.oX|.].oXx.4 & p W.oX:.G +.v.oX|.|.",
"oX|.oX+.q.d H.oXoX6 . E p . +.oX].oX9.# . 8 H.oX|.oX[ E O.^.oXoX",
"|.oXn.:.I q.oX|.oX8 . ~ d . +.oXoX .. . c |.oX|.oX|.|.m  .9.oX|.",
"|.oX*.4.B oX|.|.oX8 . ~ d . :.oXc . . L oX|.|.|.|.].oXf.Z +.R.oX",
"oXH.*.~ 9.oX|.oXoX0 . ~ d . [ l . . [ oX|.|.oXoXoXoX|.|.G [ h.oX",
"oXp.4.Z R.oX|.|.oX8 . E d . O . @ 2.oX|.|.oX|.|.|.oX].oX+.E 2.oX",
"oX2.*.L oX|.oX|.oX8 . _ d . . * t.oX].|.oX|.oXoXoXoX|.oXj.G *.oX",
"oX*.O.~ oX|.oXoXoX0 . e : . . p.oX].oX|.oXoXoXoXoXoX|.oXV.B +.].",
"|.2.*.O.oX].|.D.*., . . . . . 6 D.oX].oX|.oX|.oX|.oXoXoXU.Z +.W.",
"oX4.:.O.oX].oX2.. . . . . . . . 2 V.oX|.oX|.oXoXoXoXoXoXH.G *.R.",
"oX:.+.[ oX].oXx.y & . y 0 . c , . * B.oX].oX|.oX|.oX|.oXV.Z O.].",
"oX:.+.I oX|.|.oXoX0 . _ l . 4.V.: . ; x.oX].|.oXoXoX|.oXx.G *.oX",
"oXt.4.Z W.|.oX|.oX8 . ~ d . O.oXD.2 . # q.oX].|.|.oX].oX*.I 2.oX",
"oXV.:.E p.oX|.|.oX8 . ~ l . *.oXoXH.6 . O 4.oX|.|.oXoXoXG [ f.oX",
"|.oX+.2.G oX|.|.oX8 . ~ d . +.oX].oXW.r . O +.oX].].oXv.Z O.U.oX",
"|.oXx.2.G f.oX|.oX0 . _ l . *.oX|.].oX|.c . . _ oX|.oXB  .4.oX|.",
"oX|.|.O.q.d W.oXoX6 . I y . O.oX].oX|.|.|.c . . l |.*.L O.U.oX|.",
"oX|.|.H. .9.l oXoX~ y 9.~ 4 t.oX|.|.oX|.|.oX~ y d E Z +.j.oX|.oX",
"oXoX|.oXj.:.:.c W.oXoXoXoXoXoX|.oXoX|.oXoX|.oXoXt.c *.2.oX|.oXoX",
"|.oX|.|.oXp.O.+.d x.oXoX|.|.|.|.|.|.|.|.oXoX(._ B O.2.oX|.|.oX|.",
"oXoXoXoX|.oXn.[ 2.m I v.|.oXoXoXoXoXoXoXH.*.c L  .q.oX|.oXoXoXoX",
"oXoXoXoXoX|.oXU.O.O._ B Z ~ 2.t.p.q.O.L c Z [ O.M.oX|.oXoXoXoXoX",
"oXoX|.oXoXoX|.oXoXn.*.O.[ L G G G Z G I [ *.j.|.oX|.|.oX|.oXoX|.",
"oXoX|.oXoXoX|.oX|.oXoXU.j.q.:.2.2.2.9.j.V.oXoXoX|.oX|.oXoXoXoXoX",
"oXoXoXoXoXoX|.oXoX|.|.oXoXoXoXoXoXoXoXoXoX|.|.|.oXoXoX|.oXoXoXoX"
};
