/* XPM */
static char *_518089549250[] = {
/* columns rows colors chars-per-pixel */
"64 64 250 2 ",
"   c black",
".  c #010101",
"X  c #020202",
"o  c gray1",
"O  c #040404",
"+  c gray2",
"@  c #060606",
"#  c #070707",
"$  c gray3",
"%  c #090909",
"&  c gray4",
"*  c #0B0B0B",
"=  c #0C0C0C",
"-  c gray5",
";  c #0E0E0E",
":  c gray6",
">  c #101010",
",  c #111111",
"<  c gray7",
"1  c #131313",
"2  c gray8",
"3  c #151515",
"4  c #161616",
"5  c gray9",
"6  c #181818",
"7  c #191919",
"8  c gray10",
"9  c #1B1B1B",
"0  c gray11",
"q  c #1D1D1D",
"w  c #1E1E1E",
"e  c gray12",
"r  c #202020",
"t  c gray13",
"y  c #222222",
"u  c #232323",
"i  c gray14",
"p  c #252525",
"a  c gray15",
"s  c #272727",
"d  c #282828",
"f  c gray16",
"g  c #2A2A2A",
"h  c #2C2C2C",
"j  c #2D2D2D",
"k  c gray18",
"l  c #2F2F2F",
"z  c gray19",
"x  c #303131",
"c  c #313131",
"v  c #323232",
"b  c gray20",
"n  c #343434",
"m  c #353535",
"M  c gray21",
"N  c #373737",
"B  c gray22",
"V  c #393939",
"C  c #3A3A3A",
"Z  c gray23",
"A  c #3C3C3C",
"S  c gray24",
"D  c #3E3E3E",
"F  c #3F3F3F",
"G  c gray25",
"H  c #414141",
"J  c gray26",
"K  c #434343",
"L  c #444444",
"P  c gray27",
"I  c #464646",
"U  c gray28",
"Y  c #484848",
"T  c #494949",
"R  c gray29",
"E  c #4B4B4B",
"W  c #4C4C4C",
"Q  c gray30",
"!  c #4E4E4E",
"~  c gray31",
"^  c #505050",
"/  c #515151",
"(  c gray32",
")  c #535353",
"_  c #555555",
"`  c #565656",
"'  c gray34",
"]  c #585858",
"[  c gray35",
"{  c #5A5A5A",
"}  c #5B5B5B",
"|  c gray36",
" . c gray37",
".. c #5F5F5F",
"X. c #606060",
"o. c gray38",
"O. c #626262",
"+. c gray39",
"@. c #646464",
"#. c #656565",
"$. c gray40",
"%. c #676767",
"&. c #6C6666",
"*. c #686868",
"=. c DimGray",
"-. c #6A6A6A",
";. c gray42",
":. c #6C6C6C",
">. c #6D6D6D",
",. c gray43",
"<. c #6F6F6F",
"1. c gray44",
"2. c #717171",
"3. c #727272",
"4. c #747474",
"5. c gray46",
"6. c #767676",
"7. c #777777",
"8. c gray47",
"9. c #797979",
"0. c gray48",
"q. c #7B7B7B",
"w. c #7C7C7C",
"e. c gray49",
"r. c #7E7E7E",
"t. c #808080",
"y. c #818181",
"u. c #838383",
"i. c #848484",
"p. c gray52",
"a. c #868686",
"s. c gray53",
"d. c #888888",
"f. c #898989",
"g. c gray54",
"h. c #8B8B8B",
"j. c gray55",
"k. c #8D8D8D",
"l. c #8E8E8E",
"z. c gray56",
"x. c gray57",
"c. c #929292",
"v. c #939393",
"b. c gray58",
"n. c #959595",
"m. c gray59",
"M. c #979797",
"N. c #989898",
"B. c gray60",
"V. c #9A9A9A",
"C. c #9B9B9B",
"Z. c gray61",
"A. c #9D9D9D",
"S. c gray62",
"D. c #9F9F9F",
"F. c #A0A0A0",
"G. c gray63",
"H. c #A2A2A2",
"J. c gray64",
"K. c #A4A4A4",
"L. c #A5A5A5",
"P. c gray65",
"I. c #A7A7A7",
"U. c gray66",
"Y. c #A9A9A9",
"T. c #AAAAAA",
"R. c gray67",
"E. c #ACACAC",
"W. c gray68",
"Q. c #AEAEAE",
"!. c #AFAFAF",
"~. c #B1B1B1",
"^. c #B2B2B2",
"/. c gray70",
"(. c #B4B4B4",
"). c gray71",
"_. c #B6B6B6",
"`. c #B7B7B7",
"'. c gray72",
"]. c #B9B9B9",
"[. c gray73",
"{. c #BBBBBB",
"}. c gray74",
"|. c gray",
" X c gray75",
".X c #C0C0C0",
"XX c #C1C1C1",
"oX c gray76",
"OX c #C3C3C3",
"+X c gray77",
"@X c #C5C5C5",
"#X c #C6C6C6",
"$X c gray78",
"%X c #C8C8C8",
"&X c gray79",
"*X c #CACACA",
"=X c #CBCBCB",
"-X c gray80",
";X c #CDCDCD",
":X c #CECECE",
">X c gray81",
",X c #D0D0D0",
"<X c gray82",
"1X c #D2D2D2",
"2X c LightGray",
"3X c gray83",
"4X c #D5D5D5",
"5X c gray84",
"6X c #D7D7D7",
"7X c #D8D8D8",
"8X c gray85",
"9X c #DADADA",
"0X c gray86",
"qX c gainsboro",
"wX c #DDDDDD",
"eX c gray87",
"rX c #DFDFDF",
"tX c gray88",
"yX c #E1E1E1",
"uX c #E3E1E1",
"iX c #E2E2E2",
"pX c gray89",
"aX c #E4E4E4",
"sX c gray90",
"dX c #E6E6E6",
"fX c #E7E7E7",
"gX c gray91",
"hX c #E9E9E9",
"jX c #EAEAEA",
"kX c gray92",
"lX c #ECECEC",
"zX c gray93",
"xX c #EEEEEE",
"cX c #EFEFEF",
"vX c gray94",
"bX c #F1F1F1",
"nX c gray95",
"mX c #F3F3F3",
"MX c #F4F4F4",
"NX c gray96",
"BX c #F6F6F6",
"VX c gray97",
"CX c #F8F8F8",
"ZX c #F9F9F9",
"AX c gray98",
"SX c #FBFBFB",
"DX c gray99",
"FX c #FDFDFD",
"GX c #FEFEFE",
"HX c white",
/* pixels */
"HXHXHXHXHXHXHXHXHXHXHXHXHXHXHXHXHXHXHXSXHXHXHXHXSXHXSXSXSXVXVXVXSXVXSXSXSXSXHXHXHXHXHXHXSXHXHXSXHXHXHXHXHXHXHXHXHXHXHXHXHXHXHXHX",
"HXHXHXHXHXHXHXHXHXHXHXHXHXHXHXHXHXHXHXHXHXHXHXHXSXSXHXHXHXHXHXHXHXHXHXHXHXHXSXSXSXSXHXHXHXHXHXHXHXHXHXHXHXHXHXHXHXHXHXHXHXHXHXHX",
"HXHXHXHXHXHXHXHXHXHXHXHXHXHXHXHXHXHXHXHXSXSXSXHXHXHXVX8X$XR.D.D.D.C.G.(.>XfXHXHXHXHXSXSXSXHXHXHXHXHXHXHXHXHXHXHXHXHXHXHXHXHXHXHX",
"HXHXHXHXHXHXHXHXHXHXHXHXSXHXHXHXSXHXSXSXHXHXHX*Xf.T b C S T | >.6.*.[ T C C n +.I.fXHXHXHXSXSXHXHXHXSXHXHXHXHXHXHXHXHXHXHXHXHXHX",
"HXHXHXHXHXHXHXHXHXHXHXHXHXHXHXSXHXSXHXHXwXa.S b @.Q.wXSXSXVXbXbXcXbXcXVXVXcX*Xc.~ b ' Q.SXHXHXSXSXHXHXHXSXHXHXHXHXHXHXHXHXHXHXHX",
"HXHXHXHXHXHXHXHXSXHXHXHXHXHXHXSXHXHX<X+.b +.}.HXSX$X9.H e $   $ - $ + $ u H w.$XVXkXC.H b f.VXHXSXSXHXSXHXHXSXHXHXHXHXHXHXHXHXHX",
"HXHXHXHXHXHXHXHXHXHXHXHXHXHXSXHXfX*.j a.bXHX{./ $   e ~ 6.c.Q.{.$X}./.M.1.~ e   $ [ {.SX>X' b D.HXHXSXHXHXHXHXHXHXHXHXHXHXHXHXHX",
"HXHXHXHXHXHXHXHXHXHXSXHXSXSXHXG.g 6.VXHXD.e   n j.<XSXHXHXHXHXHXHXHXHXHXHXHXSX<Xf.b   u G.SX*XS L fXHXSXHXSXHXHXHXHXHXHXHXHXHXHX",
"HXHXHXHXHXHXHXHXHXSXHXSXHXHX1.C <XHXR.2 + *.4XHXHXHXHXSXSXVXSXSXSXSXSXSXSXVXHXHXHXHX4X@.+ 2 /.HXc.g {.HXVXHXSXHXHXHXSXHXHXHXHXHX",
"HXHXHXHXHXHXHXSXHXHXSXHXkXT ' HXbXH   >.pXHXHXSXSXSXSXSXHXHXHXHXHXHXHXHXHXHXSXSXSXSXHXHXpX*.  H SX*Xg c.HXHXSXHXHXSXHXHXHXHXHXHX",
"HXHXHXHXHXHXHXHXHXSXHX*Xj f.HX$X> g *XHXHXSXSXHXHXHXHXHXHXHXHXHXHXHXHXHXHXSXSXHXHXSXSXSXHXHX$Xs > <XVXS | SXHXSXHXHXSXHXHXHXHXHX",
"HXHXHXHXHXSXHXSXVXHX{.j /.HXD.  ' VXHXVXSXSXSXHXSXSXHXSXSXHXHXSXHXSXHXHXHXHXHXHXSXHXSXHXSXVXHXVX[   I.HX@./ VXHXSXHXHXHXHXHXHXHX",
"HXHXSXHXHXHXHXSXHX$Xb <XHXw.  a.HXHXHXHXHXHXHXHXHXHXHXHXHXHXHXHXHXHXHXSXHXHXHXHXHXHXHXHXHXHXHXHXHXa.  w.HXy.' SXSXSXSXHXHXSXHXHX",
"HXHXHXHXSXHXSXHXwXg *XHXy.  I.HXSXSXfX8XwX8XpXSXkX8XwXwXfXHXSXHXHXSXHXSXSXSXSXHXSXwXwXpXpX8XwXSXSXHXQ.+ y.HX>.+.HXSXHXHXHXHXHXHX",
"HXHXHXSXSXHXSXSXT C.HXD.  R.HXSXSXHX' > 2 > n HX6.> 2 > ' HXSXHXHXSXHXHXSXVXHXcX/ > > > $ e (.HXSXVXHX/.  G.HXH C.HXVXHXHXHXHXHX",
"HXHXHXHXHXSXHX9.+.HX$X  y.HXVXSXHXHXL       s HX*.      L HXSXHXHXSXSXSXVXHX8Xn         > {.HXSXSXHXVXHXy.  >XkXg 4XHXSXHXSXHXHX",
"HXSXHXSXSXHX*Xb cXpX- | HXSXSXSXSXHXT   +   s HX*.  $   ~ HXSXSXSXSXSXSXHX$Xu     +   g >XHXSXSXHXHXSXSXHX| $ bXI.L HXSXSXHXHXDX",
"HXHXHXHXSXSXH R.HXT g SXSXHXHXHXSXHXT   +   s HX@.  $   ~ HXSXSXHXSXVXHX/.2   +     C 8XHXVXHXSXSXHXHXSXHXSXg ~ HXT D.HXSXHXHXHX",
"HXHXHXSXHXM./ HXQ.  $XHXSXSXHXHXSXHXT   +   s HX@.  +   T HXSXHXSXHXHXM.+         ~ fXHXVXSXSXHXHXSXHXSXVXHX$X  {.wXb kXHXSXDXHX",
"SXHXSXSXVXC *XVXe +.HXVXHXHXHXSXHXHXT       s HX@.  +   ~ HXVXVXHXcX*.          +.bXHXSXSXHXHXHXHXHXHXHXHXVXHX+.e HX&.y.HXSXDXHX",
"HXHXSXHXD.~ HXM.$ fXHXSXHXHXSXHXHXHXT   +   s HX>.  +   T HXbXHXpXS           9.HXSXSXHXSXHXHXHXHXHXSXHXHXSXSXpX+ G.pXn bXHXDXHX",
"HXHXSXHXT /.HXu *.HXSXHXHXHXHXHXHXHXT   +   s HX*.  +   T HXHX>Xg   +       c.HXVXSXSXSXHXHXHXSXHXSXHXHXHXHXSXHX1.u HX/ G.HXSXHX",
"HXSXHX>XC VX$X  *XHXSXHXSXHXHXHXSXHX~   +   s HX>.  +   ~ HXoXe   +     > I.HXVXSXHXHXHXHXHXHXHXHXHXHXSXSXHXSXHX4X  >X/.~ HXSXDX",
"HXSXHXy.>.HX+.n HXSXSXHXSXHXHXSXHXHXT       s HX>.  +   L R.>     +   2 (.HXVXSXHXSXHXHXSXHXHXHXHXHXHXHXHXHXSXSXHXb @.SXn qXHXSX",
"SXSXHXT (.HX2 a.HXSXHXHXHXSXHXHXSXHXT   +   s HX>.  +   +           s *XHXVXSXSXSXHXHXHXHXHXHXHXHXHXHXHXHXHXHXSXHXa.2 HX] G.HXSX",
"SXHXpXC bX<X$ *XHXSXHXHXHXHXHXHXSXHXT   +   s HX*.            +   C 8XHXVXHXSXHXSXHXHXHXSXHXHXHXHXHXHXSXHXSXHXSXHX$X+ wXC.@.HXCX",
"VXHX{.H HXa.6 VXHXSXSXHXHXSXHXHXHXHXT   +   s HX>.          +   L kXHXVXHXSXHXHXHXHXHXHXHXHXHXHXHXHXHXHXHXSXHXSXHXVX2 b.4XS HXCX",
"VXHXM.+.HX[ H HXSXHXSXHXHXHXHXSXSXHXT       s HX1.  +         [ bXHXSXSXSXHXSXHXSXHXHXHXHXHXHXHXHXHXHXHXHXHXHXSXSXHXH +.VXS kXHX",
"VXHX9.y.HXC *.HXVXHXHXHXHXHXSXHXHXHXT   +   b 8Xb         + 6.VXHXSXSXHXSXHXSXHXHXSXHXHXHXHXHXHXHXHXHXHXHXHXSXHXSXHX@.S HXH 4XHX",
"VXHX+.C.HXu y.HXSXHXSXHXHXSXHXSXVXHXT       6 n           + D.HXVXSXSXHXHXHXHXHXHXHXHXHXHXHXHXHXHXHXHXHXHXHXHXHXVXHXy.s HXK oXHX",
"VXHX' /.HX2 M.HXVXHXSXHXHXHXVXHXHXHXL   +                   $ {.HXVXSXSXHXSXSXHXSXHXHXHXHXHXHXHXHXHXHXHXHXHXSXHXSXHXc.2 HX/ /.HX",
"VXHX| }.HX6 I.HXSXHXHXHXSXHXVX@.H L >                         > I.HXVXSXSXHXSXHXHXHXSXHXHXHXHXHXHXHXHXHXHXHXHXHXSXHXI.6 HX@.Q.HX",
"VXHX+.oXHX6 R.HXSXHXHXHXSXHXVXs                                   c.HXSXSXSXSXHXSXHXHXHXHXHXHXHXHXHXHXHXHXHXHXHXSXHXR.6 HX*./.HX",
"VXHX[ (.HX2 D.HXSXHXSXSXHXHXVXb + +                                 9.HXSXSXSXSXHXSXHXHXHXSXHXHXHXHXHXHXHXHXSXHXSXHXD.2 HX| /.HX",
"VXHX+.I.HXu j.HXVXHXHXHXHXHXbXs               ' /   +   S L           *.HXSXSXSXHXHXHXHXHXHXHXHXHXHXHXHXHXHXSXHXVXHXa.u HX~ }.HX",
"VXHX6.f.HXb >.HXSXHXSXHXHXSXSXR.c.C.g       e bX6.  +   / kX~       +   6.HXSXSXSXSXSXHXHXSXHXHXHXHXHXHXHXHXHXHXSXHX>.n HXH <XHX",
"VXHXj.*.HX~ ~ HXVXHXHXHXHXSXHXHXHXHX~   +   g HX*.  +   T HXbX'           *.SXHXVXSXHXSXSXHXHXHXSXHXHXHXSXHXHXSXSXHXT ' SXH fXHX",
"SXHXQ.T HX6.u SXHXSXHXSXSXHXSXSXSXSXL   +   s HX>.  +   T HXHXVX1.  +       ~ cXHXSXSXHXHXSXHXHXHXHXHXHXHXHXHXSXSXSXu a.wXS SXSX",
"SXHX8XC SX{.$ 8XHXSXHXSXSXHXHXHXSXHX~       s HX>.  +   T HXVXSXHXw.      +   S wXHXVXSXSXSXHXHXHXHXHXHXHXHXHXSXHX4X+ >XR.' HXVX",
"HXHXSXH oXSX> M.HXVXHXHXHXHXHXSXHXHXT   +   s HX>.  +   T HXSXSXSXHXy.          s >XHXVXHXSXSXHXHXSXHXHXSXHXSXSXHXC.- HX@.c.HXVX",
"HXVXHX>.y.HXT T HXSXHXHXHXSXSXHXSXHXT   +   s HX>.  $   ~ HXSXHXSXVXHXc.+     +   e oXHXVXHXHXSXHXHXHXHXHXSXHXSXHXL ~ HXC >XHXHX",
"HXSXHX{.H HXQ.+ wXHXSXHXHXHXHXHXHXHXT   +   s HX>.  +   T HXSXSXSXSXSXHXI.-         u 4XHXVXSXSXSXSXHXSXHXHXSXSXfX+ (.>XS SXSXSX",
"HXSXSXVXS *XSX> a.HXVXHXSXHXHXHXSXHXT   +   s HX>.  +   ~ HXHXHXHXHXSXVXHX}.e   + +   e $XHXbXSXSXHXHXHXHXSXSXHXj.> HX@.f.HXSXHX",
"HXHXSXHXa.@.HX6.e bXHXSXHXHXSXHXHXHXT       s HX>.  +   T HXSXHXHXSXHXSXVXHX>Xs         > /.HXSXSXSXSXHXHXSXSXVX6 w.VXj pXHXSXHX",
"SXHXSXHXfXb pXkX- a.HXVXHXHXHXHXHXHXT   +   g HX>.  +   T HXSXHXHXSXSXSXHXSXHXwXC   +     $ D.HXSXVXSXHXHXSXHXf.$ bXf.*.HXSXHXHX",
"HXHXHXSXHX6.>.HXf.+ fXSXSXSXHXHXSXHX~   +   s HX>.  $   ~ HXSXHXHXHXHXHXHXSXSXHXcXS           a.HXVXVXSXSXSXpX+ c.VXb 4XHXSXHXSX",
"HXSXHXSXSXcXn >XSXu ~ HXSXSXHXSXSXHXL   +   s HX>.  +   T HXSXHXHXHXSXHXHXSXHXVXHXwXC   +       1.SXHXSXSXHXT s HX>.6.HXSXHXHXHX",
"HXHXHXHXSXHXR.H HXoX  M.HXVXSXHXHXHX~ + +   s HX>.  $   ~ HXSXSXHXSXHXHXSXHXSXHXSXHXcXH     + +   | VXSXHXM.  >X>Xb bXSXSXHXHXSX",
"HXHXSXHXHXSXHX/ j.HXC.  /.HXSXHXSXHXS       6 HX@.      H HXSXHXHXHXSXHXHXHXHXSXHXVXHXbX/           H HX(.  D.HXn (.HXSXSXHXSXHX",
"HXHXHXHXHXSXSXkXb $XHX1.+ 4XHXVXSXHXM.*.1.*.y.HXc.n S C 6.HXHXHXHXHXHXHXHXSXHXSXHXSXSXHXVXa.*.*.>.*.>.{.$ 1.HX*.1.HXSXHXHXHXHXHX",
"HXHXHXHXHXSXSXHX{.j cXHXT > 8XHXSXSXHXHXHXHXHXSXSXVXSXVXSXHXSXHXSXHXHXHXHXHXHXHXHXSXHXSXHXHXHXHXHXHXfX> L HXD.S HXSXSXSXHXHXHXHX",
"HXHXSXHXHXHXSXSXHXC.H VXHXL $ }.HXSXSXSXSXSXSXHXSXHXHXHXSXHXHXSXHXSXHXHXHXHXHXHXHXHXHXHXSXSXSXVXHX{.+ H HX(.n fXHXSXHXHXHXSXHXHX",
"HXHXHXHXHXHXSXHXSXHXj.S kXHX|   c.HXHXVXSXHXHXHXHXSXSXHXSXHXHXHXHXHXHXHXHXHXHXHXHXHXHXHXHXVXHXHXc.  +.HXD.j 8XHXSXSXHXSXHXHXHXHX",
"HXHXHXHXHXSXHXHXHXSXHXM.j oXHXj.  +.VXHXSXSXSXSXHXHXHXHXHXHXHXHXHXHXHXSXHXHXSXHXHXSXHXVXSXHXVX+.  M.HX9.C wXHXSXHXHXHXHXSXHXHXHX",
"HXHXHXHXHXHXHXHXHXSXVXHX}.s c.HX{.- 2 R.HXHXHXSXSXSXHXSXHXHXHXHXHXHXHXHXSXHXHXSXSXSXHXHXHXR.2 - $XHXL ' VXHXSXHXHXHXHXHXHXHXHXHX",
"HXHXHXHXHXHXHXSXHXHXHXSXHXfXL @.HXVX+.  g I.VXHXHXHXSXSXSXSXSXSXSXHXSXSXSXSXSXHXHXHXVXG.j   *.SX>Xb a.HXHXSXHXHXSXHXHXHXHXHXHXHX",
"HXHXHXHXHXHXHXHXHXSXSXHXSXHXSX+.b /.HX<X'   u 6.>XVXHXHXHXHXHXHXHXHXHXHXHXHXHXVX*X6.e   [ 8XSXw.s /.HXVXSXHXHXHXHXHXHXHXHXHXHXHX",
"HXHXHXHXHXHXHXHXHXHXHXHXHXSXHXHX{.n L *XHXpX1.2   6 [ j.(.<XpXcXcXkXfX4X(.j.[ 6   6 6.pXSXM.j +.fXHXSXHXSXHXSXHXHXHXHXHXHXHXHXHX",
"HXHXHXHXHXHXHXHXHXHXSXHXHXSXSXSXHXSXC.b H G.bXHX*Xw.b $     $ > 2 > - +   $ n y.*XSX4Xw.b ' >XHXHXSXHXSXHXHXHXHXHXHXHXHXHXHXHXHX",
"HXHXHXHXHXHXHXHXHXHXHXHXHXHXHXHXSXHXHXSXR.~ n [ I.fXHXSXkX>X(.(.(.(.{.<XkXVXbX>Xj.H n 1.<XHXHXSXSXHXSXHXHXHXHXHXHXHXHXHXHXHXHXHX",
"HXHXHXHXHXHXHXHXHXHXSXHXHXSXHXHXHXSXSXSXHXHXpXj.~ b C ~ 1.c.I.R.(.Q.G.a.@.H C C @./.SXHXHXSXSXHXHXHXHXHXSXHXHXHXHXHXHXHXHXHXHXHX",
"HXHXHXHXHXHXHXHXHXHXHXHXHXHXHXHXHXHXHXHXSXSXHXHXHXcX*XG.f.>.+.+.+.@.@.w.M./.4XHXHXHXHXSXSXHXHXHXHXHXHXHXHXHXHXHXHXHXHXHXHXHXHXHX",
"HXHXHXHXHXHXHXHXHXHXHXHXHXHXHXHXHXSXHXHXHXHXHXSXSXHXHXHXHXHXHXHXHXHXHXHXHXHXHXHXSXSXSXHXHXHXHXSXHXSXHXHXHXHXHXHXHXHXHXHXHXHXHXHX",
"HXHXHXHXHXHXHXHXHXHXHXHXHXHXHXHXHXHXHXHXHXSXHXSXHXHXSXSXVXSXSXVXSXSXVXSXSXSXSXHXHXHXHXSXHXHXHXHXHXHXHXHXHXHXHXHXHXHXHXHXHXHXHXHX"
};
