/* XPM */
static char *_518089659729[] = {
/* columns rows colors chars-per-pixel */
"128 128 33 1 ",
"  c #000000",
". c #0B0B0B",
"X c #131313",
"o c #1C1C1C",
"O c #232323",
"+ c #2B2B2B",
"@ c #333333",
"# c #3C3C3C",
"$ c #444444",
"% c #4C4C4C",
"& c #555555",
"* c #5C5C5C",
"= c #626262",
"- c #6C6C6C",
"; c #737373",
": c #7C7C7C",
"> c #848484",
", c #8C8C8C",
"< c #959595",
"1 c #9B9B9B",
"2 c #B59E9E",
"3 c #A4A4A4",
"4 c #ACACAC",
"5 c #B2B2B2",
"6 c #BCBCBC",
"7 c #C3C3C3",
"8 c #CBCBCB",
"9 c #D4D4D4",
"0 c #DCDCDC",
"q c #E4E4E4",
"w c #ECECEC",
"e c #F4F4F4",
"r c #FEFEFE",
/* pixels */
"rrrrrrrrrrrrrrrrrrrrrrrrrrrrrrrrrrrrrrrrrrrrrrrrrrrrrrrrrrrrrrrrrrrrrrrrrrrrrrrrrrrrrrrrrrrrrrrrrrrrrrrrrrrrrrrrrrrrrrrrrrrrrrrr",
"rrrrrrrrrrrrrrrrrrrrrrrrrrrrrrrrrrrrrrrrrrrrrrrrrrrrrrrrrrrrrrrrrrrrrrrrrrrrrrrrrrrrrrrrrrrrrrrrrrrrrrrrrrrrrrrrrrrrrrrrrrrrrrrr",
"rrrrrrrrrrrrrrrrrrrrrrrrrrrrrrrrrrrrrrrrrrrrrrrrrrrrrrrrrrrrrrrrrrrrrrrrrrrrrrrrrrrrrrrrrrrrrrrrrrrrrrrrrrrrrrrrrrrrrrrrrrrrrrrr",
"rrrrrrrrrrrrrrrrrrrrrrrrrrrrrrrrrrrrrrrrrrrrrrrrrrrrrrrrrrrrrrrrrrrrrrrrrrrrrrrrrrrrrrrrrrrrrrrrrrrrrrrrrrrrrrrrrrrrrrrrrrrrrrrr",
"rrrrrrrrrrrrrrrrrrrrrrrrrrrrrrrrrrrrrrrrrrrrrrrrrrrrrrrrrrwwqqqqqqqq0werrrrrrrrrrrrrrrrrrrrrrrrrrrrrrrrrrrrrrrrrrrrrrrrrrrrrrrrr",
"rrrrrrrrrrrrrrrrrrrrrrrrrrrrrrrrrrrrrrrrrrrrrrrrrrre96<;&#O.   .  .  XO#%-<49wrrrrrrrrrrrrrrrrrrrrrrrrrrrrrrrrrrrrrrrrrrrrrrrrrr",
"rrrrrrrrrrrrrrrrrrrrrrrrrrrrrrrrrrrrrrrrrrrrrrre91&+     .o+#%&=;-*&$@o.     O%<8errrrrrrrrrrrrrrrrrrrrrrrrrrrrrrrrrrrrrrrrrrrrr",
"rrrrrrrrrrrrrrrrrrrrrrrrrrrrrrrrrrrrrrrrrrrre8:+   X#=,489qerrrrrrrrrrw085<-$X   O-6errrrrrrrrrrrrrrrrrrrrrrrrrrrrrrrrrrrrrrrrrr",
"rrrrrrrrrrrrrrrrrrrrrrrrrrrrrrrrrrrrrrrrrr9,#   #:5qrrrrrrrrrrrrrrrrrrrrrrrrrq6,%X  +:8rrrrrrrrrrrrrrrrrrrrrrrrrrrrrrrrrrrrrrrrr",
"rrrrrrrrrrrrrrrrrrrrrrrrrrrrrrrrrrrrerre4%   $<9rrrrrreq963,;;;;;;;;;;<369qerrrrr91%.  #1wrrrrrrrrrrrrrrrrrrrrrrrrrrrrrrrrrrrrrr",
"rrrrrrrrrrrrrrrrrrrrrrrrrrrrrrrrrrrrrw,+  @>8errrre91=$+X               .XO$=<9errrr9,#  o:0rrrrrrrrrrrrrrrrrrrrrrrrrrrrrrrrrrrr",
"rrrrrrrrrrrrrrrrrrrrrrrrrrrrrrrrrrre1O .&6errrrq4;#.         .XoO+oo..        X#-4wrrrr7-X X>qrrrrrrrrrrrrrrrrrrrrrrrrrrrrrrrrrr",
"rrrrrrrrrrrrrrrrrrrrrrrrrrrrrrrrrr3@ .;9rrrre6-+     .o#&:<4699qwwq9985<:&#O.     +-6wrrrq>X O<wrrrrrrrrrrrrrrrrrrrrrrrrrrrrrrrr",
"rrrrrrrrrrrrrrrrrrrrrrrrrrrrrrrr8$  =9rrrrq>@     o&>7werrrrrrrrrrrrrrrrrrrq7,%O     @>0rrrq:. +5rrrrrrrrrrrrrrrrrrrrrrrrrrrrrrr",
"rrrrrrrrrrrrrrrrrrrrrrrrrrrrrrw>X &7rrrrq,O    +;5qrrrrrrrrerrrrrrrrrrerrrrrrrrq5;+    O,0rrr9-  -qrerrrrrrrrrrrrrrrrrrrrrrrrrrr",
"rrrrrrrrrrrrrrrrrrrrrrrrrrrrrq% o5rrrr9-o   o=5wrrrrrrrrrrrrrrrrrrrrrrrrrrrrrrrrrrw4=O   o-9rrr7@ +9rrrrrrrrrrrrrrrrrrrrrrrrrrrr",
"rrrrrrrrrrrrrrrrrrrrrrrrrerr7O ;qrrre:X   O<qrrrrrrrrrrrrrrrrrrrrrrrrrrrrrrrrrrrrrrrrq<O   X:wrre< .4rrrrrrrrrrrrrrrrrrrrrrrrrrr",
"rrrrrrrrrrrrrrrrrrrrrrrrrrr<..<rrrr5#   @>wrrrrrrrrrrrrrrrrrrrrrrrrrrrrrrrrrrrrrrrrrrrrw,@   $5rrr5o ;rrrrrrrrrrrrrrrrrrrrrrrrrr",
"rrrrrrrrrrrrrrrrrrrrrrrrre; o7rrrw&   +3errrrrrrrrrrrrrrrrrrrrrrrrrrrrrrrrrrrrrrrrrrrerrre3@   &qrr0@ *wrrrrrrrrrrrrrrrrrrrrrrrr",
"rrrrrrrrrrrrrrrrrrrrrrrrq% %qrer8$  .-wrrerrrrrrrrrrrrrrrrrrrrrrrrrrrrrrrrrrrrrrrrrrrrrrrrrq=X  #8rrw- +8rerrrrrrrrrrrrrrrrrrrrr",
"rrrrrrrrrrrrrrrrrrrrrer7O ;wrrr5X  %7rrrrrrrrrrrrrrrrrrrrrrrrrrrrrrrrrrrrrrrrrrrrrrrrrrrrrerr8&  X5rrr< .3rrrrrrrrrrrrrrrrrrrrrr",
"rrrrrrrrrrrrrrrrrrrrrr<X.<rrrr>   =rrrrrrrrrrrrrrrrrrrrrrrrrrrrrrrrrrrrrrrrrrrrrrrrrrrrrrrrrrre=   >rrr4o :rrrrrrrrrrrrrrrrrrrrr",
"rrrrrrrrrrrrrrrrrrrrr, o8rrrw&  .<rrrrrrrrrrrrrrrrrrrrrrrrrrrrrrrrrrrrrrrrrrrrrrrrrrrrrrrrrrrrrr1.  &qrr0# -rrrrrrrrrrrrrrrrrrrr",
"rrrrrrrrrrrrrrrrrrrr1 %qrerq$  O7rerrrrrrrrrrrrrrrrrrrrrrrrrrrrrrrrrrrrrrrrrrrrrrrrrrrrrrrrrrrrer7O  $qrrw- :rerrrrrrrrrrrrrrrrr",
"rrrrrrrrrrrrrrrrrrr3 $errr7O  %9rrrrrrrrrrrrrrrrrrrrrrrrrrrrrrrrrrrrrrrrrrrrrrrrrrrrrrrrrrrrrrrrrr9&  O7rrr= >rrrrrrrrrrrrrrrrrr",
"rrrrrrrrrrrrrrrrrr5 #wrer7o  &rrerrrrrrrrrrrrrrrrrrrrrrrrrrrrrrrrrrrrrrrrrrrrrrrrrrrrrrrrrrrrrrrrrre&  X7rrr& <rrrrrrrrrrrrrrrrr",
"rrrrrrrrrrrrrrrrr6.@qrrr9O  >errrrrrrrrrrrrrrrrrrrrrrrrrrrrrrrrrrrrrrrrrrrrrrrrrrrrrrrrrrrrrrrrrrrerr>O O9rrr% 1rerrrrrrrrrrrrrr",
"rrrrrrrrrrrrrrrreO.9rrr0+  ,rrrrrrrr6<111111<6rr01111111<9rrrrrrrrrrrrrerrrrrrerr8111111111117errrrrrr9. +9rrw+ 0rrrrrrrrrrrrrrr",
"rrrrrrrrrrrrrrre* ,rerw@  :rrrrrrrre&        *rr4        <rrrrrrrrrrrrrrerrrrrrr5@          #6errrrrrer>  @wrr5 $wrrrrrrrrrrrrrr",
"rrrrrrrrrrrrrrr< ;rrrr;  :rrrrrrrrre&        *er4        <rrrrrrrrrrrrrrrrerere1O          &8rrrerrrrrrr:  ;rrr1 =rrrrrrrrrrrrrr",
"rrrrrrrrrrrrer8X+wrrr1  #rrrrrererrr&        =rr5        1rrrrrrrrrrrrrrrrerre>X          &9rererrrrrrrrr$  <rrr$ 4rrrrrrrrrrrrr",
"rrrrrrrrrrrrre@ 8rer3. o8rrrrrrrrrrr&        *er5        <rerrrrrrrrrrrrerrrq-.         .-0rrrrrrrrrrrrrr9o  3rrqOXqrrrrrrrrrrrr",
"rrrrrrrrrrrrr, :rer5. X7rrrrrrrrrrrr&        =rr3        1rrrrrrrrrerrrrrrr9*          X;0rrrrrrrrrrrrrrrr7X .5rr1 =rrrrrrrrrrrr",
"rrrrrrrrrrrr9X+wrrw+ X6rrrrrrrrrrrre&        =rr3        <rrrrrrrrrrrereer8%          X>wrrrrrrrrrrrrrrrrer6X +wrr% 6rrrrrrrrrrr",
"rrrrrrrrrrre& 5rrr:  ,rerrrrrrrrrrrr&        *er1        <rrrrrrrrrrrrrrr6$          O1errerrrrrrrrrrrrrrrrr,  :rr9 @wrrrrrrrrrr",
"rrrrrrrrrrr4 *rrr7X #errrrrrrrrrrrrr&        *rr3        <rrrrrrrrrerrrr3+          @5rrerrrrrrrrrrrrrrrrrree# .7rr, :rrrrrrrrrr",
"rrrrrrrrrrqOo9rre% .6rerrrrrrrrrrrre&        *rr3        <rrrrrerrrrrrw<o          #5rrerrerrrrrrrrrrrrrrrrrr7. %ere@.8rrrrrrrrr",
"rrrrrrrrrr> <rer1  -rrrrrrrrrrrrrrrr&        =rr1        1rerrrrrererq:X          $7rrerrrrrrrrrrrrrrrrrrrrrrr;  1rr5 *rrrrrrrrr",
"rrrrrrrrrwooqrrw@ +qrrrrrrrrrrrrrrrr&        *rr3        1rrrrrrrrrr7&X          &8rerrrrrrrrrrrrrrrrrrrrrrrrrwO @wrr#.9rrrrrrrr",
"rrrrrrrrr< >rer>  ,rrrrrrrrrrrrrrrre&        =er3        <rrerereee3+          .-0rrrrrrrrrrrrrrrrrrrrrrrrrrrer<  :rr2 -rrrrrrrr",
"rrrrrrrre+Xqrrqo $wrrrrrrrrrrrrrrrrr&        *rr4        <rrerrrre<o          .>wrrrrrrrrrrrrrrrrrrrrrrrrrrrrerw$ oqre@.9rrrrrrr",
"rrrrrrrr3 ;rer,  4rrrrrrrrrrrrrrrrrr& .      =rr5        <rrrrerw>.          o,wrrerrrrerrrrrrrrrrrrrrrrrrrrrrrr4  ,rr1 :rerrrrr",
"rrrrrrrr% 9rrw+ #errrrrrrrrrrrrrrrrr&        *er4        <rererq-.          O1erererrrrrrrrrrrrrrrrrrrrrrrrrrrrre# OwrwX+errrrrr",
"rrrrrrr9.#rer5  <rerrrrrrrrrrrrrrrrr&        *rr4        1rrrr9&           +4ereerrrrrrrrrrrrrrrrrrrrrrrrrrrrrrrr3  1rr= 6rrrrrr",
"rrrrrrr> 1rer= X9rrrrrrrrrrrrrrrrrrr&        *rr5        <rrr9%           #6ererrrrrrrrrrrrrrrrrrrrrrrrrrrrrrrrrrwO %rr7 *rrrrrr",
"rrrrrre@.0rrqX &rrrrrrrrrrrrrrrrrrre&        =rr4        <rr7%           %7rrrrrrrrrrrrrrrrrrrrrrrrrrrrrrrrrrrrrrr= X0reOXqrrrrr",
"rrrrrr6 =rrr1  4rrrrrrrrrrrrrrrrrrrr&        =er5        1r4@           &9rererrrrrrrrrrrrrrrrrrrrrrrrrrrrrrrrrrrr4  <rr, <rrrrr",
"rrrrrr, 4rre$ +wrrrrrrrrrrrrrrrrrrrr&        *rr5        =1+          .=9rrrrrrrrrrrrrrrrrrrrrrrrrrrrrrrrrrrrrrrrrw+ $er8 *rrrrr",
"rrrrrr% 9rr9X ;rrrrrrrrrrrrrrrrrrrrr&        =rr5                    .;wrrerrrrrrrrrrrrrrrrrrrrrrrrrrrrrrrrrrrrrrrr; .9rwoOerrrr",
"rrrrr9.#rrr3  4rrrrrrrrrrrrrrrrrrrrr&        *er5                   X>wrerrrrrrrrrrrrrrrrrrrrrrrrrrrrrrrrrrrrrrrrrr4  1rr= 7rrrr",
"rrrrr5 :rer- X0rerrrrrrrrrrrrrrrrrre&        *rr4                  O<ererrrrrrrrrrrrrrrrrrrrrrrrrrrrrrrrrrrrrrrrrrr0o -rr3 ,rrrr",
"rrrrr: 4rrw+ $rrrrrrrrrrrrrrrrrrrrrr&        =rr5                 +4errrrrrrrrrrrrrrrrrrrrrrrrrrrrrrrrrrrrrrrrrrrrrr$ +wr9 &rerr",
"rrrrr$ qrr8. >rerrrrrrrrrrrrrrrrrrrr&        *rr5                @4rrrrrrrrrrrrrrrrrrrrrrrrrrrrrrrrrrrrrrrrrrrrrrrer> .7re+owrrr",
"rrrreo+eer1  5rrrrrrrrrrrrrrrrrrrrrr&        =er4               #7rereerrrrrrrrrrrrrrrrrrrrrrrrrrrrrrrrrrrrrrrrrrrrr6  <rr& 9rrr",
"rrrr0 &rrr; X9rerrrrrrrrrrrrrrrrrrrr&        *er5              %7rrrrerrrrrrrrrrrrrrrrrrrrrrrrrrrrrrrrrrrrrrrrrrrrerqo -rr: 6rrr",
"rrrr7 -rrr& +errrrrrrrrrrrrrrrrrrrrr*        =rr4            .=9rrrrrrrrrrrrrrrrrrrrrrrrrrrrrrrrrrrrrrrrrrrrrrrrrrrrw+ &rr< 3rrr",
"rrrr3 <rrr@ %rrrrrrrrrrrrrrrrrrrrrre&        *rw:           .-qrerrrrrrrrrrrrrrrrrrrrrrrrrrrrrrrrrrrrrrrrrrrrrrrrrrrr% @er5 >rrr",
"rrrr< 4rrqO =rrrrrrrrrrrrrrrrrrrrrrr&        =w>.          X:wrrrrrrrrrrrrrrrrrrrrrrrrrrrrrrrrrrrrrrrrrrrrrrrrrrrrrer= Owr9 -rrr",
"rrer; 7rr9X :rerrrrrrrrrrrrrrrrrrrre&        %,O           o3rrrrrrrerrrrrrrrrrrrrrrrrrrrrrrrrrrrrrrrrrrrrrrrrrrrrrrr: X9r0 %rrr",
"rrrr* 9rr8. ,rrrrrrrrrrrrrrrrrrrrrrr&        ..             +3ererrrrrrrrrrrrrrrrrrrrrrrrrrrrrrrrrrrrrrrrrrrrrrrrrrrr, .8rwX@err",
"rrrr%.qrr7  3rrrrrrrrrrrrrrrrrrrerrr&                        @9rrrrrrerrrrrrrrrrrrrrrrrrrrrrrrrrrrrrrrrrrrrrrrrrrrrrr3  6rrOorrr",
"rrrr%Xwrr6  5rerrrrrrrrrrrrreerrrrre%                         &9rerrrrrrrrrrrrrrrrrrrrrrrrrrrrrrrrrrrrrrrrrrrrrrrrrer5  7rr@oerr",
"rrrr$Oerr6  7rrrrrrrrrrrrrrrrq,;:;:=o                          #6rerrrrrrrrrrrrrrrrrrrrrrrrrrrrrrrrrrrrrrrrrrrrrrrrrr6  7rr$oerr",
"rrer$+rrr7 .8rrrrrrrrrrrrrrrr0O                                 +4erererrrrrrrrrrrrrrrrrrrrrrrrrrrrrrrrrrrrrrrrrrrrrr8. 7rr&Xrrr",
"rrrr$@rer6 .8rerrrrrrrrrrrrrr0O                                  O4rrerrrrrrrrrrrrrrrrrrrrrrrrrrrrrrrrrrrrrrrrrrrrrrr9. 7rr&oerr",
"rrrr$+rrr7 .8rrrrrrrrrrrrrrrrqO                                   o,errrererrrrrrrrrrrrrrrrrrrrrrrrrrrrrrrrrrrrrrrrrr8. 7rr&orrr",
"rrrr%oerr7  6rrrrrrrrrrrrrrrr0O                                    .:wrrrerrrrrrrrrrrrrrrrrrrrrrrrrrrrrrrrrrrrrrrrrrr6  7rr$oerr",
"rrrr%Xerr6  5rrrrrrrrrrrrrrrr0O                                      -wrrrrrererrrrrrrrrrrrrrrrrrrrrrrrrrrrrrrrrrrrer5  6rr@orrr",
"rrer*.qrr8. 3rrrrrrrrrrrrrrrr0+ .              #&        $+           &9ererrrrrrrrrrrrrrrrrrrrrrrrrrrrrrrrrrrrrrrrrr3  8rrO+rrr",
"rrrr- 9rr9X ,rerrrrrrrrrrrrer0o               $95        <1o           =qrrrrrerrrrrrrrrrrrrrrrrrrrrrrrrrrrrrrrrrrrer, X9rwX$rrr",
"rrrr, 6rrqo ;rrerrrrrrrrrrrrrq&@###@.        @8r5        <r1O          .>wrererrrrrrrrrrrrrrrrrrrrrrrrrrrrrrrrrrrrrrr; oqr9 &rrr",
"rrer1 1rre+ &rrrrrrrrrrrrrrrrrewwwe0$        *rr5        <rr7#          .;qrrrrrerrrrrrrrrrrrrrrrrrrrrrrrrrrrrrrrrrrr& +er7 ;rrr",
"rrrr5 >rrr$ @rrrrrrrrrrrrrrrrrrrrrrr&        *er5        <rrr6+          .-0rrrrrrrrrrrrrrrrrrrrrrrrrrrrrrrrrrrrrrrre# #rr3 <rrr",
"rrrr8 *rer= oqrrrrrrrrrrrrrrrrrrrrrr&        =rr5        <reer7#           &9rreererrrrrrrrrrrrrrrrrrrrrrrrrrrrrrrrrwO =rr, 4rrr",
"rrrrw.#rrr, .8rrrrrrrrrrrrrrrrrrrrre&        =rr4        <rrrrr9&           $7rerrrerrrrrrrrrrrrrrrrrrrrrrrrrrrrrrrr9. >rr- 8rrr",
"rrrrr+Xwrr5  1rrrrrrrrrrrrrrrrrrrrrr&        *er5        <reerer0-.          @5rerrrrerrrrrrrrrrrrrrrrrrrrrrrrrrrrrr1  5rr#.qrrr",
"rrrer= 8rr0X -rrrrrrrrrrrrrrrrrrrrrr&        *rr5        1rrrrrerw>X          +3errrerrrrrrrrrrrrrrrrrrrrrrrrrrrrrer= o9rqX@errr",
"rrrrr1 <rrr$ +wrrrrrrrrrrrrrrrrrrrrr&        *rr5        <rrrrrrrrq=           O<errrrrrrrrrrrrrrrrrrrrrrrrrrrrrrrrw+ $rr6 ;rrrr",
"rrrrr8 &rer, .7rrrrrrrrrrrrrrrrrrrrr&        =er5        <rrrrrrrrr0-.          X:wrreerrerrrrrrrrrrrrrrrrrrrrrrrrr7. >rr> 4rerr",
"rrrrreOowrr6  ,rerrrrrrrrrrrrrrrrrrr&        *rr5        <rrerrrrrrrw:X          .;0rrrrerrrrrrrrrrrrrrrrrrrrrrrrrr<  5rr# qrrrr",
"rrrrrr- 6rrwO &rrrrrrrrrrrrrrrrrrrrr& .      *rr5        <rrrrrrrrrerq,X          .=9rrerrrrrrrrrrrrrrrrrrrrrrrrrrr% Oqr0.$rrrrr",
"rrrrrr3 ,rer= .8rerrrrrrrrrrrrrrrrre&        =rr5        1rrrrrrrererre1o           &9rrererrrrrrrrrrrrrrrrrrrrrrr8. -rr5 ;rrrrr",
"rrrrrr0X@err6. >rrrrrrrrrrrrrrrrrrrr&        =er5        <rrrrrrrrrrerre3+           -wrrrerrrrrrrrrrrrrrrrrrrrrrr>  6rr& 6rrrrr",
"rrrrrrr& 7rre@ @errrrrrrrrrrrrrrrrrr&        *rr5        <rrrrrrrrerrrrrr6#          X>wrerrrerrrrrrrrrrrrrrrrrrrr$ +wrq.@rrrrrr",
"rrrrrrr4 -rrr,  6rrrrrrrrrrrrrrrrrrr&        *rr5        1rrrrrrrrrrrrrrrr7%          .-0rrrerrrrrrrrrrrrrrrrrrrr8. ;rr< ,rrrrrr",
"rrrrrrreOXwrr9. -rerrrrrrrrrrrrrrrrr&        =rr5        <rrrrrrrrrrrrrrrrr9*           *9rrrreerrrrrrrrrrrrrrrer- .7rr#.9rerrrr",
"rrrrrrrr; 3rrr& X9rerrrrrrrrrrrrrrre&        =er5        <rrrrrrrrrrrrrererr0=.          &8rerrrerrrrrrrrrrrrrrr9o &rr8 %rrrrrrr",
"rrrrrrrr8.#rer6. :rrrrrrrrrrrrrrrrrr&        *rr5        1rrrrrrrrrrrrrrrrerrw;.          $6rrrrrrrrrrrrrrrrrrrr:  6rr= 5rrrrrrr",
"rrrrrrrrr* 6rrr$ X7rrrrrrrrrrrrrrrrr*        *rr5        <rrrrrrrrrrrrrrrrrrrrw>o          @4rrerrrrrrrrrrrrrrr8X #rr9.@rrerrrrr",
"rrrrrrrrr8 %rer6X &rerrrrrrrrrrrrrrr&        =rr5        <rrrrrrrrrrrrrrrrrrrere1o          +4errereererrrrrrrr& .6rr; 3rrrrrrrr",
"rrrrrrrrrr% 7rer= .5rrrrrrrrrrrrrrrr&        =er5        1rrrrrrrrrrrrrrrrrrrrrre4+          o,errerrerrrrrrer6. =rrqX+errrrrrrr",
"rrrrrrrrrr6 &rrr8X @wrrrrrrrrrrrrrrr&        *rr5        <rrrrrrrrrrrrrrrrrrrrrerr5X          X>wrerrrrrrrrrrw@ X8rr: <rrrrrrrrr",
"rrrrrrrrrrr= 3rer>  >rrrrrrrrrrrrrrr&        *rr5        <rrrrrrrrrrrrrrrrrrrrreere:.          .;qrrerrerrrer>  ,rr8 $errrrrrrrr",
"rrrrrrrrrrr0oOqrre# .7rrrrrrrrrrrrre&        =rr5        1rrrrrrrrrrrrrrrrrrrrrrrrrw<O          .=9rrrrrrrrr8X #wre# 7rrrrrrrrrr",
"rrrrrrrrrrer1 ;rer6. %errrrrrrrrrrrr&        *er5        <rrrrrrrrrrrrrrrrrrrrrrerrrr4o           %9rrrrrrre% .6rr< -rrrrrrrrrrr",
"rrrrrrrrrrrrr$ 7rrr-  &rrrrrrrrrrrrr&        *rr5        <rrrrrrrrrrrrrrrrrrrrrrrrrrrr4O           $7rerrrr*  =rr0XOwrrrrrrrrrrr",
"rrrrrrrrrrrrr8.+rrrw%  -rrrrrrrrrrrr&        =rr5        1rrrrrrrrrrrrrrrrrrrrrrrrrrrer5+           @6rrrr-  $wrr& 4rrrrrrrrrrrr",
"rrrrrrrrrrrrrr: :rrrw#  >rrrrrrrrrre&        =er5        1rrrrrrrrrrrrrrrrrrrrrrrrrrerrr6$           $8rr,  #wrr1 &rrrrrrrrrrrrr",
"rrrrrrrrrrrrrer% 7rerq@ X8rrrrrrrrrr&        *rr4        <rerrrrrrrrrrrrrrrrrrrrrrerrrerr8$           =r8X +qrrq.Owrrrrrrrrrrrrr",
"rrrrrrrrrrrrrrr8X+9rrr5  O9rerrrrrrr5,,,,,,<,5er7%##@@###5rrrrrrrrrrrrrrrrrrrrrrrrrrrrrrrr9<,,,,<,,,,,49+  5rrw$ 5rrrrrrrrrrrrrr",
"rrrrrrrrrrrrrrrr6 $rrer,  +qrrrrrrrrrrrrrrrrrrereq09009q0errrrrrrrrrrrrrrrrrrrrrrrrrrrrrrrrrrrrrrrrrrrw@  ,rrr- 1rrrrrrrrrrrrrrr",
"rrrrrrrrrrrrrrrrr- ,rrrr:  #wrrrrrrrrrrrrrrrrerrrrrrrrrrrrrrrrrrrrrrrrrrrrrrrrrrrrrrrrrrrrrrrrrrrerrrq#  :rrr4 $rrrrrrrrrrrrrrrr",
"rrrrrrrrrrrrrrrrrw& <rrrr;  +5rrrrrrrrrrrrrrrrrrrrerrrrrrrrrrrrrrrrrrrrrrrrrrrrrrrrrrrrrrrrrrrrrrrrr6O  -rrr6 @qrrrrrrrrrrrrrrrr",
"rrrrrrrrrrrrrrrrrre$ 3rerr=  X4rerrrrrrrrrrrrrrrrrrrrrrrrrrrrrrrrrrrrrrrrrrrrrrrrrrrrrrrrrrrrrrrrrr5X  =rer7.+9rerrrrrrrrrrrrrrr",
"rrrrrrrrrrrrrrrrrrrw# 4rere>. .:rrrrrrrrrrrrrrrrrrrrrrrrrrrrrrrrrrrrrrrrrrrrrrrrrrrrrrrrrrrrrrrerr:.  >rrr8Xo9rrrrrrrrrrrrrrrrrr",
"rrrrrrrrrrrrrrrrrrrrq@ >rrrr3   *qrrrrrrrrrrrrrrrrrrrrrrrrrrrrrrrrrrrrrrrrrrrrrrrrrrrrrrrrrrrrrrq&  .1rrr1XX8rrrrrrrrrrrrrrrrrrr",
"rrrrrrrrrrrrrrrrrrrrr0+ =wrrr6+  #8rrrrrrrrrrrrrrrrrrrrrrrrrrrrrrrrrrrrrrrrrrrrrrrrrrrrrrrrrrrr8#  +6rre> o7rrrrrrrrrrrrrrrrrrrr",
"rrrrrrrrrrrrrrrrrrrrrrw= @9rrr9%  X5rrerrrrrrrrrrrrrrrrrrrrrrrrrrrrrrrrrrrrrrrrrrrrrrrrrrrrerr5X  %9rrq& $9rrrrrrrrrrrrrrrrrrrrr",
"rrrrrrrrrrrrrrrrrrrrrerr> X4rerr=  .=8rrrrrrrrrrrrrrrrrrrrrrrrrrrrrrrrrrrrrrrrrrrrrrrrrrrrrr8=.  =rrr8+ -wrerrrrrrrrrrrrrrrrrrrr",
"rrrrrrrrrrrrrrrrrrrrrrrrr3o >rrrr1.  X<errrrrrrrrrrrrrrrrrrrrrrrrrrrrrrrrrrrrrrrrrrrrrrrrre<X   1rrr1X ,rrrrrrrrrrrrrrrrrrrrrrrr",
"rrrrrrrrrrrrrrrrrrrrrrrrrr9@ -qrer6$   #3qrrerrrrrrrrrrrrrrrrrrrrrrrrrrrrrrrrrrrrrrrrrrrw3#   %6rre> o7rrrrrrrrrrrrrrrrrrrrrrrrr",
"rrrrrrrrrrrrrrrrrrrrrrrrrrrw= @9rrrr4o   o,wrrrrrrrrrrrrrrrrrrrrrrrrrrrrrrrrrrrrrrrrrrw,O   o4errw% $0rrrrrrrrrrrrrrrrrrrrrrrrrr",
"rrrrrrrrrrrrrrrrrrrrrrrrrrrrr> X>rrrr9-X   +>9rrrrrrrrrrrrrrrrrrrrrrrrrrrrrrrrerrrrr9>+   X-0rrr3O =wrrrrrrrrrrrrrrrrrrrrrrrrrrr",
"rrrrrrrrrrrrrrrrrrrrrrrrrrrrrr4X %7rrrr9:O   X$<9rrrrrrrrrrrrrrrrrrrrrrrrerrrrrrr0<$.   O:8rrr9=  ,rrrrrrrrrrrrrrrrrrrrrrrrrrrrr",
"rrrrrrrrrrrrrrrrrrrrrrrrrrrrrerq-  *8rrrrw>o    o%>6qrrrrrrrrerrerrrrrrrrrrrrw6:%X    o>qrrr9;. &9rrrrrrrrrrrrrrrrrrrrrrrrrrrrrr",
"rrrrrrrrrrrrrrrrrrrrrrrrrrrrrrrrr4# .-9rrrrq1%X     +&>37qwrrrrrrrrrrrrwq74>&O.    X&10rrrq>X O1errrrrrrrrrrrrrrrrrrrrrrrrrrrrrr",
"rrrrrrrrrrrrrrrrrrrrrrrrrrrrrrrrrre1+ .;7rrrrr9,$X      .o+$&-;:,,>:-*%@o.      X#,9rrrr8>o o,qrrrrrrrrrrrrrrrrrrrrrrrrrrrrrrrrr",
"rrrrrrrrrrrrrrrrrrrrrrrrrrrrrrrrrrrre<o  %3qrrrre93-@.                      .@-39rrrrw4=  X:qrrrrrrrrrrrrrrrrrrrrrrrrrrrrrrrrrrr",
"rrrrrrrrrrrrrrrrrrrrrrrrrrrrrrrrrrrerrq1#  X=4wrrrrre83>-&#OoXXoXoXXXo+#&-,38errrrw6-O  @,0rrrrrrrrrrrrrrrrrrrrrrrrrrrrrrrrrrrrr",
"rrrrrrrrrrrrrrrrrrrrrrrrrrrrrrrrrrrrrrrrr5-o  O;40rrrrrrrreq009990909qwerrrrrrrq5>+  X&3wrrrrrrrrrrrrrrrrrrrrrrrrrrrrrrrrrrrrrrr",
"rrrrrrrrrrrrrrrrrrrrrrrrrrrrrrrrrrrrrrrrrrrw4&X  X$>49qrrrrrrrrrrrrrrrrrrrw95,&X   %3qrrrrrrrrrrrrrrrrrrrrrrrrrrrrrrrrrrrrrrrrrr",
"rrrrrrrrrrrrrrrrrrrrrrrrrrrrrrrrrrrrrrrrrrrrrrq1=O    o@&;,36789099875<:*#O    o&<9rrrrrrrrrrrrrrrrrrrrrrrrrrrrrrrrrrrrrrrrrrrrr",
"rrrrrrrrrrrrrrrrrrrrrrrrrrrrrrrrrrrrrrrrrrrrrrrrre81-#O         .         o@*<7wrrrrrrrrrrrrrrrrrrrrrrrrrrrrrrrrrrrrrrrrrrrrrrrr",
"rrrrrrrrrrrrrrrrrrrrrrrrrrrrrrrrrrrrrrrrrrrrrrrrrrrrrrwq84<:;;------;>1470errrrrrrrrrrrrrrrrrrrrrrrrrrrrrrrrrrrrrrrrrrrrrrrrrrrr",
"rrrrrrrrrrrrrrrrrrrrrrrrrrrrrrrrrrrrrrrrrrrrrrrrrrrrrrrrrrrrrrrrrrrrrrrrrrrrrrrrrrrrrrrrrrrrrrrrrrrrrrrrrrrrrrrrrrrrrrrrrrrrrrrr",
"rrrrrrrrrrrrrrrrrrrrrrrrrrrrrrrrrrrrrrrrrrrrrrrrrrrrrrrrrrrrrerrrrrrrrrrrrrrrrrrrrrrrrrrrrrrrrrrrrrrrrrrrrrrrrrrrrrrrrrrrrrrrrrr",
"rrrrrrrrrrrrrrrrrrrrrrrrrrrrrrrrrrrrrrrrrrrrrrrrrrrrrrrrrrrrrrrrrrrrrrrrrrrrrrrrrrrrrrrrrrrrrrrrrrrrrrrrrrrrrrrrrrrrrrrrrrrrrrrr",
"rrrrrrrrrrrrrrrrrrrrrrrrrrrrrrrrrrrrrrrrrrrrrrrrrrrrrrrrrrrrrrrrrrrrrrrrrrrrrrrrrrrrrrrrrrrrrrrrrrrrrrrrrrrrrrrrrrrrrrrrrrrrrrrr"
};
